<?xml version="1.0" ?><svg style="enable-background:new 0 0 512 512;" version="1.1" viewBox="0 0 512 512" xml:space="preserve" xmlns="http://www.w3.org/2000/svg" xmlns:xlink="http://www.w3.org/1999/xlink"><style type="text/css">
	.st0{display:none;}
	.st1{fill:#DEFFFE;}
	.st2{fill:#004358;}
	.st3{fill:#04BFBF;}
	.st4{fill:#BEDB39;}
</style><g id="Layer_1"/><g class="st0" id="Layer_3"/><g class="st0" id="Layer_5"/><g id="Layer_4"><g><path class="st1" d="M233.261,302.115h144.323c11.579,0,21-9.42,21-21V195.88h-26.618v63.827c0,8.837-7.163,16-16,16H233.261    v-6.055H45.435v32.463h146.749v104.302c0,11.97,9.703,21.673,21.673,21.673h181.162v-29.571H242.926    c-11.97,0-21.673-9.703-21.673-21.673v-74.731H233.261z"/><g><path class="st3" d="M443.627,362.351h-16.032c-13.466,0-24.422-10.956-24.422-24.421s10.956-24.421,24.422-24.421h16.032     c13.466,0,24.421,10.956,24.421,24.421S457.093,362.351,443.627,362.351z M427.595,323.508c-7.952,0-14.422,6.469-14.422,14.421     s6.47,14.421,14.422,14.421h16.032c7.952,0,14.421-6.469,14.421-14.421s-6.469-14.421-14.421-14.421H427.595z"/></g><g><path class="st3" d="M345.531,362.351h-64.348c-13.466,0-24.421-10.956-24.421-24.421s10.955-24.421,24.421-24.421h64.348     c13.466,0,24.421,10.956,24.421,24.421S358.997,362.351,345.531,362.351z M281.184,323.508c-7.952,0-14.421,6.469-14.421,14.421     s6.469,14.421,14.421,14.421h64.348c7.952,0,14.421-6.469,14.421-14.421s-6.469-14.421-14.421-14.421H281.184z"/></g><g><path class="st3" d="M335.087,442.375h-16.032c-13.466,0-24.421-10.956-24.421-24.421s10.955-24.421,24.421-24.421h16.032     c13.466,0,24.422,10.956,24.422,24.421S348.553,442.375,335.087,442.375z M319.055,403.532c-7.952,0-14.421,6.469-14.421,14.421     s6.469,14.421,14.421,14.421h16.032c7.952,0,14.422-6.469,14.422-14.421s-6.47-14.421-14.422-14.421H319.055z"/></g><g><path class="st3" d="M238.725,442.375h-64.348c-13.466,0-24.421-10.956-24.421-24.421s10.955-24.421,24.421-24.421h64.348     c13.466,0,24.421,10.956,24.421,24.421S252.19,442.375,238.725,442.375z M174.377,403.532c-7.952,0-14.421,6.469-14.421,14.421     s6.469,14.421,14.421,14.421h64.348c7.952,0,14.421-6.469,14.421-14.421s-6.469-14.421-14.421-14.421H174.377z"/></g><g><path class="st3" d="M443.627,280.708h-87.661c-2.762,0-5-2.239-5-5s2.238-5,5-5h87.661c7.952,0,14.421-6.469,14.421-14.421     s-6.469-14.422-14.421-14.422h-71.661c-2.762,0-5-2.239-5-5s2.238-5,5-5h71.661c13.466,0,24.421,10.956,24.421,24.422     C468.048,269.752,457.093,280.708,443.627,280.708z"/></g><g><path class="st3" d="M221.252,360.719h-46.875c-13.466,0-24.421-10.956-24.421-24.421s10.955-24.421,24.421-24.421h46.875     c2.762,0,5,2.239,5,5s-2.238,5-5,5h-46.875c-7.952,0-14.421,6.469-14.421,14.421s6.469,14.421,14.421,14.421h46.875     c2.762,0,5,2.239,5,5S224.014,360.719,221.252,360.719z"/></g><path class="st2" d="M355.966,12.007H27.559c-11.579,0-21,9.42-21,21v226.7c0,9.8,6.552,17.946,15.61,20.3v18.3    c0,6.23,3.465,11.823,9.044,14.597c2.318,1.153,4.805,1.721,7.275,1.721c3.474,0,6.917-1.123,9.819-3.319l40.424-30.598h267.234    c11.579,0,21-9.42,21-21v-226.7C376.966,21.428,367.545,12.007,355.966,12.007z"/><g><g><path class="st4" d="M301.974,122.444H81.55c-17.288,0-31.354-14.065-31.354-31.354S64.262,59.737,81.55,59.737h220.424      c17.288,0,31.354,14.065,31.354,31.354S319.262,122.444,301.974,122.444z M81.55,69.737c-11.774,0-21.354,9.579-21.354,21.354      s9.579,21.354,21.354,21.354h220.424c11.774,0,21.354-9.579,21.354-21.354s-9.579-21.354-21.354-21.354H81.55z"/></g><g><path class="st4" d="M301.974,232.978h-21.755c-17.288,0-31.354-14.065-31.354-31.354s14.065-31.354,31.354-31.354h21.755      c17.288,0,31.354,14.065,31.354,31.354S319.262,232.978,301.974,232.978z M280.219,180.271      c-11.774,0-21.354,9.579-21.354,21.354s9.579,21.354,21.354,21.354h21.755c11.774,0,21.354-9.579,21.354-21.354      s-9.579-21.354-21.354-21.354H280.219z"/></g><g><path class="st4" d="M168.864,232.978H81.55c-17.288,0-31.354-14.065-31.354-31.354s14.065-31.354,31.354-31.354h87.314      c17.288,0,31.354,14.065,31.354,31.354S186.152,232.978,168.864,232.978z M81.55,180.271c-11.774,0-21.354,9.579-21.354,21.354      s9.579,21.354,21.354,21.354h87.314c11.774,0,21.354-9.579,21.354-21.354s-9.579-21.354-21.354-21.354H81.55z"/></g></g><g><path class="st2" d="M482.463,430.087c-2.952,0-5.878-0.954-8.345-2.821l-31.373-23.748H242.926     c-14.708,0-26.674-11.966-26.674-26.673v-83.106c0-2.761,2.238-5,5-5s5,2.239,5,5v83.106c0,9.194,7.479,16.673,16.674,16.673     h201.498c1.09,0,2.149,0.356,3.018,1.013l32.712,24.761c1.718,1.3,3.397,0.697,4.041,0.378c0.643-0.319,2.137-1.295,2.137-3.449     v-19.865c0-1.916,1.095-3.663,2.817-4.499c5.805-2.815,9.41-8.568,9.41-15.013V217.554c0-9.194-7.479-16.673-16.674-16.673     h-92.493c-2.762,0-5-2.239-5-5s2.238-5,5-5h92.493c14.708,0,26.674,11.966,26.674,26.673v159.292     c0,9.066-4.71,17.552-12.228,22.421v16.955c0,5.293-2.944,10.046-7.685,12.403C486.676,429.604,484.563,430.087,482.463,430.087z     "/></g><g><path class="st2" d="M133.809,509.915c-2.101,0-4.213-0.482-6.183-1.462c-4.741-2.357-7.686-7.11-7.686-12.404v-16.955     c-7.518-4.868-12.228-13.354-12.228-22.421V297.381c0-2.761,2.238-5,5-5s5,2.239,5,5v159.292c0,6.445,3.605,12.197,9.409,15.012     c1.724,0.836,2.818,2.583,2.818,4.499v19.865c0,2.154,1.495,3.13,2.138,3.449c0.641,0.319,2.32,0.921,4.039-0.377l32.713-24.761     c0.868-0.657,1.928-1.013,3.018-1.013h201.498c9.193,0,16.673-7.479,16.673-16.673v-39.154c0-2.761,2.238-5,5-5s5,2.239,5,5     v39.154c0,14.708-11.966,26.673-26.673,26.673H173.526l-31.374,23.748C139.687,508.96,136.76,509.915,133.809,509.915z"/></g></g></g></svg>