<svg xmlns="http://www.w3.org/2000/svg" viewBox="0 0 52 52"><title>domain-registrar</title><g id="domain-registrar"><g id="domain-registrar-2" data-name="domain-registrar"><g id="browser"><path d="M4,50H48a2,2,0,0,0,2-2V12H2V48A2,2,0,0,0,4,50Z" fill="#eae8e8"/><path d="M48,2H4A2,2,0,0,0,2,4v8H50V4A2,2,0,0,0,48,2Z" fill="#40495a"/><rect x="6" y="6" width="6" height="2" fill="#748191"/><rect x="16" y="6" width="30" height="2" fill="#748191"/></g><rect x="4" y="14" width="44" height="34" fill="#ff6e40"/><circle cx="11" cy="30" r="4.5" fill="#fff"/><polygon points="12.72 27.13 10.1 30.41 9.14 29.48 8.04 30.62 10.25 32.75 13.96 28.12 12.72 27.13" fill="#2ecc71"/><path d="M25.3,26a.75.75,0,0,0-.92.56l-1,4.1-.74-2a.75.75,0,0,0-1.41,0l-.74,2-1-4.1a.75.75,0,0,0-.92-.56.76.76,0,0,0-.55.93l1.59,6.47a.76.76,0,0,0,.69.58h0a.75.75,0,0,0,.71-.49l.89-2.37.88,2.37a.75.75,0,0,0,1.44-.09l1.59-6.47A.76.76,0,0,0,25.3,26Z" fill="#fff"/><path d="M34.37,26a.75.75,0,0,0-.92.56l-1,4.1-.74-2a.75.75,0,0,0-1.41,0l-.74,2-1-4.1a.75.75,0,0,0-.92-.56.76.76,0,0,0-.55.93l1.59,6.47a.76.76,0,0,0,.69.58h0a.75.75,0,0,0,.71-.49L31,31.14l.88,2.37a.75.75,0,0,0,1.44-.09l1.59-6.47A.76.76,0,0,0,34.37,26Z" fill="#fff"/><path d="M43.43,26a.75.75,0,0,0-.92.56l-1,4.1-.74-2a.75.75,0,0,0-1.41,0l-.74,2-1-4.1A.75.75,0,0,0,36.7,26a.76.76,0,0,0-.55.93l1.59,6.47a.76.76,0,0,0,.69.58h0a.75.75,0,0,0,.71-.49l.89-2.37.88,2.37a.75.75,0,0,0,1.44-.09L44,26.95A.76.76,0,0,0,43.43,26Z" fill="#fff"/></g></g></svg>